<?xml version="1.0" encoding="UTF-8"?>
<svg id="Layer_1" xmlns="http://www.w3.org/2000/svg" viewBox="0 0 567.935 792" fill="#fff">
  <path d="M373.356,704.6c-17.042,1.41-33.529,2.775-50.016,4.139.008.258.016.516.025.774,9.047.585,18.1,1.087,27.133,1.845,1.342.113,3.336,1.143,3.751,2.234,2.883,7.581,8.53,12.457,15.195,16.465,1.435.863,2.865,1.735,4.296,2.606q6.935,4.219,3.585,12.05c47.188,1.829,94.352,1.422,141.029,8.039.063.754.126,1.507.189,2.261-3.359.727-6.686,1.85-10.08,2.115-20.802,1.628-41.598,3.631-62.437,4.462-95.669,3.819-191.382,3.979-287.083,1.757-37.303-.866-74.569-3.386-111.842-5.349-5.658-.298-11.26-1.662-16.898-3.414,8.974-4.169,18.668-3.876,29.376-5.415-2.553-1.57-4.033-2.445-5.479-3.374-19.304-12.4-28.712-29.644-26.062-52.898,1.138-9.985,1.922-20.011,3.109-29.989.179-1.502,1.373-3.271,2.628-4.196,10.104-7.451,21.116-13.248,32.913-17.562,2.417-.884,4.752-1.992,7.717-3.248-2.285-4.266-4.465-8.334-6.811-12.715,11.736-7.628,23.325-15.163,34.915-22.695,10.982-7.137,21.843-14.472,33.002-21.321,5.225-3.208,9.264-7.261,12.563-12.304,8.754-13.383,17.331-26.893,26.51-39.981,4.055-5.782,9.059-11.019,14.227-15.871,7.881-7.399,16.146-14.408,24.5-21.276,5.955-4.897,10.791-10.469,14.71-17.176,12.909-22.086,26.204-43.946,39.341-65.899.588-.982,1.081-2.02.824-3.55-3.641,5.235-7.283,10.47-11.593,16.667-.744-5.485-1.392-9.987-1.958-14.499-1.098-8.764-2.267-17.523-3.127-26.311-.19-1.937.324-4.252,1.298-5.941,5.25-9.102,10.655-18.118,16.236-27.021,1.124-1.793,3.019-3.41,4.932-4.353,13.788-6.795,27.673-13.391,41.52-20.067,1.198-.578,2.339-1.276,3.279-2.523-20.112,5.753-40.225,11.506-60.93,17.428-1.635-9.865-3.311-19.415-4.671-29.011-.146-1.028,1.365-2.539,2.429-3.449,7.158-6.118,14.404-12.134,21.621-18.184-.201-.345-.402-.69-.603-1.034-8.188,4.282-16.375,8.565-25.216,13.189-1.907-11.174-3.756-22.006-5.668-33.208,10.462-2.633,20.565-5.175,30.667-7.718-.039-.269-.078-.537-.117-.806-9.541.573-19.084,1.105-28.622,1.726-20.524,1.336-41.052,2.625-61.56,4.172-3.435.259-4.069-1.493-4.76-3.972-4.942-17.733-9.923-35.456-14.901-53.179-.323-1.151-.728-2.28-1.92-3.294,2.288,18.048,4.577,36.097,6.954,54.841-10.527-1.946-20.448-3.852-30.398-5.588-5.392-.941-10.892-1.319-16.24-2.439-7.091-1.485-8.275-2.748-8.986-9.82-1.402-13.94-2.592-27.903-3.641-41.874-.135-1.796.883-3.794,1.718-5.529,15.512-32.233,31.04-64.458,46.697-96.621,1.407-2.89,1.606-5.224.123-8.112-2.848-5.547-5.531-11.199-7.862-16.977-.645-1.6-.471-4.234.459-5.648,5.271-8.015,10.787-15.877,16.471-23.606,1.08-1.468,3.198-2.773,4.991-3.013,8.449-1.135,16.968-1.74,25.426-2.817,3.526-.449,5.821.697,7.43,3.636-.166.364-.217.782-.418.874-9.001,4.134-11.248,12.389-13.028,21.024-.818,3.969-2.059,7.852-2.314,12.042,2.635-6.409,5.11-12.892,7.991-19.189,1.015-2.217,2.728-4.352,4.641-5.873,4.764-3.787,9.895-7.109,14.736-10.804,2.073-1.582,3.779-1.828,6.19-.627,6.653,3.313,13.453,6.328,20.419,9.566.365-.521.733-.848.855-1.25,6.039-19.976,19.377-31.216,40.145-32.848,7.664-.602,15.588-.55,23.146.702,15.437,2.558,23.993,12.734,27.358,27.643.465,2.06.816,4.146,2.336,6.251.225-4.99.451-9.981.699-15.476,6.336-1.057,13.047-2.181,19.76-3.295,6.569-1.09,13.14-2.171,20.278-3.35-1.397,8.412-5.279,14.594-11.784,19.132-7.202,5.024-15.529,6.701-24.009,8.082-21.474,3.497-42.92,7.174-64.375,10.791-2.055.346-4.096.78-6.039,1.9,20.701-1.2,41.402-2.4,62.539-3.625-.707,11.724-1.975,22.952-1.774,34.154.083,4.619,3.261,9.207,5.195,13.74.249.584,1.452.902,2.27,1.078,4.189.898,7.496,5.968,12.839,1.719,3.333-2.651,7.858-3.802,12.212-5.793,7.467,11.547,15.005,22.784,21.966,34.367,1.233,2.051.251,5.566-.052,8.368-.257,2.385.187,3.861,2.525,5.097,35.264,18.644,70.474,37.39,105.702,56.101.655.348,1.382.561,2.36.949,3.743-9.93,4.565-19.916,2.633-30.159-1.765-9.357,3.482-15.507,13.02-15.006,7.815.411,15.453,1.526,21.972,6.502,6.466,4.935,8.92,12.199,4.953,19.317-3.893,6.983-8.84,13.435-13.788,19.757-4.686,5.987-10.062,11.429-14.957,17.26-2.259,2.691-4.356,1.634-6.71.449-18.084-9.111-36.179-18.199-54.271-27.293-19.174-9.638-38.286-19.402-57.572-28.809-4.168-2.033-6.711-4.219-6.017-9.129.179-1.267-.282-2.624-1.183-3.955-1.004,7.539-1.952,15.085-3.026,22.614-1.289,9.042-2.481,18.107-4.178,27.074-.415,2.194-2.226,4.611-4.091,5.967-18.477,13.438-37.103,26.673-55.68,39.974-.926.663-1.795,1.408-2.239,2.829,19.587-10.923,39.173-21.846,59.521-33.194-1.329,8.668-3.222,16.609-3.603,24.622-.473,9.945-4.989,15.717-13.935,19.864-10.304,4.776-19.916,11.046-29.486,17.431,12.983-5.394,25.966-10.788,39.831-16.548-.658,4.16-1.2,7.631-1.756,11.099-1.181,7.364-2.267,14.746-3.629,22.077-.314,1.69-1.579,3.203-2.918,5.783,5.105,9.451,10.949,20.071,16.542,30.821.924,1.775,1.39,4.261.978,6.185-3.795,17.699-8.398,35.247-11.519,53.057-1.281,7.31.397,15.16.879,22.755.985,15.509,2.13,31.008,3.047,46.52.121,2.04-.463,4.22-1.138,6.192-3.892,11.376-8.048,22.663-11.762,34.096-.694,2.137-.452,5.101.497,7.158,4.012,8.704,8.601,17.141,12.642,25.833,1.074,2.31,1.576,5.251,1.279,7.778-3.641,31.001-7.863,61.941-10.997,92.991-.784,7.764,1.477,15.916,2.866,23.797,1.98,11.236,4.452,22.385,6.692,33.576.203,1.015.242,2.063.426,3.708ZM293.132,711.018c2.321-8.858,4.594-17.045,6.558-25.307.65-2.734,1.004-5.721.647-8.484-4.23-32.759-8.649-65.493-12.888-98.251-.236-1.82.371-3.918,1.107-5.667,4.015-9.536,8.313-18.953,12.211-28.535.759-1.867.753-4.469.113-6.406-2.337-7.07-4.966-14.053-7.749-20.963-1.129-2.801-.941-4.95.672-7.556,15.619-25.248,31.104-50.58,46.617-75.894.908-1.482,1.741-3.011,2.608-4.518-1.276.354-2.007,1.035-2.619,1.81-14.164,17.926-28.162,35.986-42.51,53.764-14.828,18.373-29.9,36.508-37.87,59.273-1.752,5.005-4.203,9.788-6.626,14.523-.987,1.928-2.493,3.806-4.216,5.106-8.63,6.51-17.526,12.67-26.119,19.228-37.408,28.548-74.733,57.206-112.121,85.782-4.43,3.386-9.059,6.511-13.893,9.97-5.892-10.683-11.551-20.941-17.21-31.2,1.205,8.747,3.034,17.193,5.277,25.527.823,3.057.326,5.078-1.968,7.194-8.938,8.243-11.691,18.595-9.782,30.355,1.927,11.871,6.871,22.332,15.172,31.174-2.733,1.794-5.283,3.468-7.556,4.96,72.557-1.292,145.039-2.583,217.765-3.879-.386-1.099-.552-2.386-1.214-3.322-3.29-4.644-1.754-8.472,1.311-12.601,3.951-5.322,7.36-11.047,11.419-17.234-6.018.404-11.118.746-17.138,1.15ZM200.092,89.427c-3.703,3.07-6.512,5.164-9.005,7.583-.964.935-1.599,2.57-1.732,3.949-2.266,23.341-4.371,46.698-6.72,70.03-.203,2.016-1.484,4.259-2.93,5.752-4.608,4.758-9.53,9.213-14.331,13.784,4.498-1.333,8.38-3.556,12.325-5.659,20.77-11.07,39.92-25.559,62.958-31.842,12.283-3.349,20.016-9.581,21.59-22.461.43-3.516,2.648-4.548,5.801-5.133,14.51-2.694,28.988-5.56,43.472-8.399,4.417-.866,8.812-1.839,13.217-2.763-.051-.229-.102-.458-.152-.687-19.543,1.146-39.086,2.292-59.121,3.467.631-15.437-12.581-25.013-13.77-39.298-.53.174-1.06.347-1.589.521,2.258,8.261,4.516,16.521,7.015,25.664-6.626-3.353-12.658-6.388-18.664-9.476-.5-.257-1.044-.804-1.187-1.321-1.649-5.976-5.939-11.59-2.458-18.3.539-1.038.447-2.404.779-4.414-8.127,7.587-8.628,10.177-4.14,18.189.372.664.777,1.316,1.076,2.012,1.038,2.418-1.869,9.723-4.267,9.922-8.701.721-18.06,3.686-24.206-6.065-1.052-1.669-2.436-3.129-3.96-5.055Z"/>
</svg>